<svg xmlns="http://www.w3.org/2000/svg" version="1.1" xmlns:xlink="http://www.w3.org/1999/xlink" xmlns:svgjs="http://svgjs.dev/svgjs" width="1920" height="1080" preserveAspectRatio="none" viewBox="0 0 1920 1080"><g mask="url(&quot;#SvgjsMask1793&quot;)" fill="none"><rect width="1920" height="1080" x="0" y="0" fill="rgba(207, 213, 225, 1)"></rect><path d="M0,841.41C153.741,801.541,221.47,626.844,325.997,507.261C400.682,421.818,469.64,338.754,525.642,240.052C586.953,131.993,658.759,27.781,668.33,-96.091C679.286,-237.894,687.133,-408.25,583.236,-505.377C478.482,-603.305,308.913,-552.892,166.079,-565.612C52.83,-575.697,-57.44,-598.651,-168.036,-572.279C-282.87,-544.897,-380.067,-481.232,-476.048,-412.498C-598.677,-324.681,-795.654,-266.319,-805.459,-115.808C-815.514,38.55,-578.556,94.235,-518.34,236.718C-455.102,386.352,-562.113,586.82,-456.389,710.156C-351.238,832.824,-156.395,881.967,0,841.41" fill="#a5b0c6"></path><path d="M1920 1524.548C2002.991 1528.902 2080.059 1482.182 2145.768 1431.3020000000001 2207.732 1383.3220000000001 2254.855 1318.755 2281.125 1244.92 2306.015 1174.966 2293.613 1100.994 2289.673 1026.849 2285.322 944.979 2305.545 854.077 2256.85 788.1179999999999 2207.553 721.344 2111.948 718.0029999999999 2036.357 683.725 1946.084 642.789 1868.297 560.544 1769.391 567.073 1665.379 573.9390000000001 1567.656 636.9259999999999 1503.284 718.913 1440.132 799.346 1428.274 906.396 1422.7930000000001 1008.512 1417.684 1103.698 1417.471 1206.644 1472.946 1284.162 1525.754 1357.954 1629.039 1365.413 1708.959 1408.387 1781.144 1447.202 1838.154 1520.254 1920 1524.548" fill="#fafafc"></path></g><defs><mask id="SvgjsMask1793"><rect width="1920" height="1080" fill="#ffffff"></rect></mask></defs></svg>