<svg width="595" height="488" viewBox="0 0 595 488" fill="none" xmlns="http://www.w3.org/2000/svg">
<g clip-path="url(#clip0_122_2097)">
<path d="M521.04 100.316H136.12C130.8 100.316 126.472 96.0239 126.472 90.7487V61.3432C126.472 56.0679 130.8 51.7761 136.12 51.7761H521.04C526.361 51.7761 530.689 56.0679 530.689 61.3432V90.7487C530.689 96.0239 526.361 100.316 521.04 100.316Z" fill="white" stroke="#BAB7C9" stroke-width="2" stroke-linecap="round" stroke-linejoin="round"/>
<path d="M521.04 281.587H136.12C130.8 281.587 126.472 277.295 126.472 272.02V242.614C126.472 237.339 130.8 233.047 136.12 233.047H521.04C526.361 233.047 530.689 237.339 530.689 242.614V272.02C530.689 277.295 526.361 281.587 521.04 281.587Z" fill="white" stroke="#BAB7C9" stroke-width="2" stroke-linecap="round" stroke-linejoin="round"/>
<path d="M247.788 411.738H134.927C129.607 411.738 125.278 407.446 125.278 402.171V372.765C125.278 367.49 129.607 363.198 134.927 363.198H247.788C253.108 363.198 257.436 367.49 257.436 372.765V402.171C257.436 407.446 253.108 411.738 247.788 411.738Z" fill="#6C63FF"/>
<path d="M127.317 1.18311H211.739" stroke="#BAB7C9" stroke-width="2" stroke-linecap="round" stroke-linejoin="round"/>
<path d="M127.317 182.454H284.139" stroke="#BAB7C9" stroke-width="2" stroke-linecap="round" stroke-linejoin="round"/>
<path d="M474.471 434.515L461.196 442.93L473.234 461.602L486.509 453.187L474.471 434.515Z" fill="#F1A1A4"/>
<path d="M432.369 183.515L415.599 189.193L415.336 165.182L430.597 165.014L432.369 183.515Z" fill="#F1A1A4"/>
<path d="M417.294 171.812C426.556 171.812 434.064 164.368 434.064 155.184C434.064 146 426.556 138.555 417.294 138.555C408.032 138.555 400.524 146 400.524 155.184C400.524 164.368 408.032 171.812 417.294 171.812Z" fill="#F1A1A4"/>
<path d="M421.883 153.488C419.082 153.434 417.201 150.649 416.079 148.086C414.957 145.538 413.804 142.592 411.196 141.556C409.06 140.712 405.376 146.605 403.674 145.07C401.902 143.466 403.519 135.087 405.369 133.575C407.218 132.064 409.757 131.741 412.14 131.595C417.983 131.265 423.857 131.664 429.599 132.792C433.143 133.483 436.811 134.55 439.388 137.059C442.662 140.243 443.544 145.093 443.823 149.628C444.117 154.271 443.892 159.136 441.663 163.233C439.427 167.323 434.699 170.37 430.11 169.388C429.622 166.924 430.055 164.4 430.21 161.883C430.365 159.381 430.14 156.68 428.577 154.7C427.014 152.721 423.717 151.969 421.945 153.757" fill="#2F2E43"/>
<path d="M442.577 159.021C444.241 157.785 446.229 156.742 448.296 156.972C450.532 157.21 452.436 159.021 453.032 161.169C453.628 163.318 453.009 165.697 451.654 167.477C450.3 169.257 448.265 170.439 446.098 171.045C444.844 171.398 443.474 171.544 442.267 171.045C440.495 170.308 439.52 168.091 440.193 166.303" fill="#2F2E43"/>
<path d="M380.171 316.114C379.119 321.585 381.216 326.557 384.869 327.21C388.514 327.862 392.329 323.948 393.389 318.477C393.846 316.298 393.745 314.042 393.095 311.901L405.995 226.141L388.614 223.103L382.895 310.09C381.494 311.87 380.558 313.934 380.171 316.137L380.171 316.114Z" fill="#F1A1A4"/>
<path d="M415.29 178.174L403.449 178.304C395.092 179.647 392.871 184.105 391.067 192.301C388.305 204.801 384.776 221.46 385.519 221.691C386.703 222.074 406.955 231.252 417.209 228.98L415.298 178.174L415.29 178.174Z" fill="#6C63FF"/>
<path d="M429.832 450.748L414.077 450.923L414.326 473.082L430.081 472.908L429.832 450.748Z" fill="#F1A1A4"/>
<path d="M399.092 486.674C397.429 486.697 395.966 486.674 394.852 486.582C390.657 486.252 386.641 483.228 384.605 481.463C383.692 480.673 383.39 479.384 383.847 478.279C384.172 477.488 384.838 476.882 385.673 476.629L396.701 473.375L414.477 461.198L414.678 461.551C414.756 461.681 416.551 464.804 417.162 466.922C417.395 467.728 417.348 468.395 417.008 468.917C416.776 469.278 416.45 469.493 416.187 469.623C416.512 469.953 417.534 470.628 420.676 471.089C425.242 471.764 426.163 467.052 426.194 466.853L426.225 466.692L426.356 466.6C428.515 465.18 429.839 464.543 430.303 464.674C430.597 464.75 431.069 464.896 432.508 477.665C432.64 478.064 433.584 480.995 432.996 483.819C432.361 486.889 418.857 485.975 416.164 485.768C416.087 485.776 405.995 486.605 399.077 486.674H399.1L399.092 486.674Z" fill="#2F2E43"/>
<path d="M457.265 482.99C455.415 483.014 453.713 482.806 452.498 482.607C451.306 482.407 450.362 481.479 450.161 480.297C450.006 479.445 450.261 478.594 450.826 477.949L458.441 469.401L467.016 449.741L467.379 449.933C467.511 450.002 470.699 451.713 472.355 453.186C472.982 453.747 473.3 454.337 473.3 454.967C473.3 455.396 473.137 455.749 472.975 455.987C473.431 456.095 474.654 456.125 477.564 454.875C481.797 453.048 480.063 448.567 479.986 448.39L479.924 448.237L479.994 448.099C481.069 445.766 481.859 444.523 482.315 444.385C482.609 444.308 483.081 444.162 491.122 454.245C491.447 454.514 493.815 456.501 494.821 459.202C495.912 462.141 483.987 468.449 481.572 469.684C481.503 469.746 469.036 478.931 463.912 481.563C461.877 482.607 459.455 482.952 457.249 482.967L457.273 482.99L457.265 482.99Z" fill="#2F2E43"/>
<path d="M439.326 265.253L395.215 265.737L391.671 306.468L410.871 456.624L433.391 456.371L423.416 369.637L460.825 447.638L480.682 433.519L451.337 360.636C451.337 360.636 460.817 296.761 452.629 280.969C444.45 265.177 439.334 265.23 439.334 265.23V265.253L439.326 265.253Z" fill="#2F2E43"/>
<path d="M461.289 267.494L391.23 268.269L411.242 178.228L441.772 177.882L461.289 267.494Z" fill="#6C63FF"/>
<path d="M468.13 315.147C469.306 320.603 467.318 325.614 463.688 326.343C460.051 327.079 456.15 323.25 454.982 317.794C454.479 315.623 454.525 313.367 455.121 311.21L440.294 225.75L457.598 222.328L465.267 309.177C466.706 310.926 467.689 312.975 468.13 315.162V315.147Z" fill="#F1A1A4"/>
<path d="M429.939 178.013L441.78 177.882C450.161 179.049 452.482 183.453 454.479 191.61C457.52 204.049 461.413 220.616 460.685 220.87C459.501 221.269 439.473 230.891 429.173 228.85L429.955 178.013L429.939 178.013Z" fill="#6C63FF"/>
</g>
<defs>
<clipPath id="clip0_122_2097">
<rect width="657" height="488" fill="white"/>
</clipPath>
</defs>
</svg>
