<svg xmlns="http://www.w3.org/2000/svg" version="1.1" xmlns:xlink="http://www.w3.org/1999/xlink" xmlns:svgjs="http://svgjs.dev/svgjs" width="1920" height="1080" preserveAspectRatio="none" viewBox="0 0 1920 1080"><g mask="url(&quot;#SvgjsMask1007&quot;)" fill="none"><rect width="1920" height="1080" x="0" y="0" fill="rgba(207, 213, 225, 1)"></rect><path d="M0,391.869C74.133,376.426,147.822,369.455,215.106,334.712C287.872,297.139,358.964,253.139,402.725,183.918C450.01,109.123,486.12,19.403,469.374,-67.486C452.829,-153.333,381.979,-216.852,314.721,-272.707C255.17,-322.162,176.645,-331.96,107.947,-367.635C18.017,-414.336,-53.383,-541.428,-151.104,-514.614C-248.202,-487.971,-233.215,-335.217,-296.27,-256.719C-355.717,-182.713,-470.546,-160.797,-506.038,-72.757C-543.813,20.946,-530.602,131.262,-489.97,223.762C-449.06,316.895,-377.818,405.169,-281.602,438.181C-189.762,469.691,-95.055,411.67,0,391.869" fill="#aab4ca"></path><path d="M1920 1633.559C2021.412 1623.772 2091.396 1535.143 2177.434 1480.575 2264.1059999999998 1425.605 2365.122 1393.2939999999999 2427.423 1311.732 2498.938 1218.109 2585.802 1102.131 2552.928 988.999 2519.389 873.58 2364.145 852.018 2271.565 775.367 2198.047 714.498 2154.384 619.4390000000001 2065.272 585.249 1972.929 549.819 1871.923 567.273 1774.56 584.678 1666.959 603.914 1539.074 605.456 1471.5230000000001 691.392 1404.005 777.2860000000001 1440.125 901.664 1439.511 1010.9159999999999 1438.982 1105.127 1436.1390000000001 1197.743 1468.18 1286.339 1502.274 1380.612 1549.033 1472.464 1628.521 1533.55 1711.652 1597.435 1815.642 1643.63 1920 1633.559" fill="#f4f6f8"></path></g><defs><mask id="SvgjsMask1007"><rect width="1920" height="1080" fill="#ffffff"></rect></mask></defs></svg>