<svg xmlns="http://www.w3.org/2000/svg" version="1.1" xmlns:xlink="http://www.w3.org/1999/xlink"
    xmlns:svgjs="http://svgjs.dev/svgjs" width="1920" height="1080" preserveAspectRatio="none"
    viewBox="0 0 1920 1080">
    <g mask="url(&quot;#SvgjsMask1102&quot;)" fill="none">
        <rect width="1920" height="1080" x="0" y="0" fill="rgba(207, 213, 225, 1)"></rect>
        <path
            d="M0,931.963C170.465,954.913,331.069,822.136,446.271,694.411C548.369,581.215,526.121,407.698,595.356,271.89C669.27,126.903,841.079,37.013,863.577,-124.164C888.044,-299.445,826.94,-482.916,720.449,-624.272C610.517,-770.196,446.864,-874.951,268.424,-914.168C95.668,-952.136,-92.895,-925.778,-245.648,-836.6C-384.713,-755.413,-434.162,-587.336,-522.273,-452.552C-597.261,-337.842,-680.9,-234.101,-724.46,-104.162C-775.612,48.423,-868.67,219.941,-795.82,363.439C-722.686,507.497,-506.654,489.901,-375.194,583.814C-233.497,685.04,-172.583,908.727,0,931.963"
            fill="#aab4ca"></path>
        <path
            d="M1920 1819.795C2061.006 1823.26 2197.294 1772.365 2315.453 1695.337 2433.096 1618.645 2519.584 1507.771 2587.331 1384.76 2659.41 1253.885 2714.618 1114.721 2717.494 965.338 2720.714 798.082 2703.014 622.063 2604.621 486.77200000000005 2502.843 346.826 2339 267.20500000000004 2173.357 217.14599999999996 2006.806 166.813 1829.482 154.16899999999998 1662.185 201.962 1494.162 249.96299999999997 1332.479 341.21299999999997 1233.934 485.52 1139.645 623.594 1141.085 800.557 1139.2440000000001 967.744 1137.601 1116.892 1150.887 1267.8319999999999 1223.886 1397.905 1293.62 1522.159 1414.991 1602.3519999999999 1536.844 1676.203 1655.8980000000001 1748.358 1780.829 1816.375 1920 1819.795"
            fill="#f4f6f8"></path>
    </g>
    <defs>
        <mask id="SvgjsMask1102">
            <rect width="1920" height="1080" fill="#ffffff"></rect>
        </mask>
    </defs>
</svg>