<svg xmlns="http://www.w3.org/2000/svg" version="1.1" xmlns:xlink="http://www.w3.org/1999/xlink" xmlns:svgjs="http://svgjs.dev/svgjs" width="1920" height="1080" preserveAspectRatio="none" viewBox="0 0 1920 1080">
    <g mask="url(&quot;#SvgjsMask1045&quot;)" fill="none">
        <rect width="1920" height="1080" x="0" y="0" fill="rgba(207, 213, 225, 1)"></rect>
        <path d="M0,522.57C102.07,539.853,207.544,513.836,298.758,464.877C394.553,413.459,498.241,345.339,526.027,240.228C553.476,136.393,445.049,44.171,438.309,-63.019C430.627,-185.19,557.831,-321.808,484.52,-419.839C413.058,-515.397,253.908,-442.903,136.863,-466.111C33.835,-486.54,-61.945,-583.159,-160.851,-547.807C-260.184,-512.302,-265.099,-368.76,-340.86,-295.357C-427.865,-211.059,-599.715,-207.578,-632.403,-90.926C-664.114,22.241,-561.616,132.059,-485.791,221.853C-422.404,296.918,-323.657,321.92,-240.119,373.632C-158.38,424.231,-94.784,506.521,0,522.57" fill="#a7b2c8"></path>
        <path d="M1920 1793.0810000000001C2055.036 1785.63 2181.254 1736.6 2296.692 1666.143 2414.283 1594.3719999999998 2532.315 1511.076 2588.288 1385.1970000000001 2644.035 1259.826 2635.3540000000003 1114.906 2600.853 982.108 2568.661 858.196 2474.82 767.848 2400.768 663.412 2317.706 546.269 2266.507 399.154 2139.707 331.74800000000005 2002.6779999999999 258.905 1828.219 221.11199999999997 1686.132 283.51700000000005 1545.836 345.135 1514.209 525.976 1420.841 647.476 1334.542 759.777 1210.479 838.8340000000001 1158.231 970.474 1097.0929999999998 1124.514 1028.491 1304.99 1100.662 1454.179 1172.826 1603.355 1362.481 1645.9 1515.612 1709.24 1645.451 1762.9450000000002 1779.705 1800.8220000000001 1920 1793.0810000000001" fill="#f7f8fa"></path>
    </g>
    <defs>
        <mask id="SvgjsMask1045">
            <rect width="1920" height="1080" fill="#ffffff"></rect>
        </mask>
    </defs>
</svg>