<svg
  xmlns="http://www.w3.org/2000/svg"
  version="1.1"
  xmlns:xlink="http://www.w3.org/1999/xlink"
  xmlns:svgjs="http://svgjs.dev/svgjs"
  width="1920"
  height="1080"
  preserveAspectRatio="none"
  viewBox="0 0 1920 1080"
>
  <g mask='url("#SvgjsMask1093")' fill="none">
    <rect
      width="1920"
      height="1080"
      x="0"
      y="0"
      fill="rgba(207, 213, 225, 1)"
    ></rect>
    <path
      d="M0,534.316C99.263,531.392,178.501,460.977,265.624,413.319C360.065,361.658,475.777,334.699,532.345,243.114C590.93,148.264,599.341,25.802,571.682,-82.196C545.253,-185.393,466.084,-264.604,384.71,-333.353C312.289,-394.539,225.878,-433.971,132.968,-452.846C45.645,-470.586,-42.793,-462.011,-128.495,-437.614C-214.766,-413.055,-294.448,-373.065,-360.493,-312.369C-432.501,-246.194,-511.231,-172.279,-522.875,-75.178C-534.468,21.497,-463.823,104.819,-421.005,192.267C-379.426,277.185,-349.26,369.65,-275.876,429.271C-197.927,492.601,-100.389,537.273,0,534.316"
      fill="#a7b2c8"
    ></path>
    <path
      d="M1920 1872.498C2069.119 1903.7359999999999 2245.544 1860.518 2350.846 1750.4099999999999 2454.369 1642.162 2411.51 1466.298 2447.514 1320.908 2475.51 1207.859 2526.217 1106.786 2538.9030000000002 991.015 2555.261 841.737 2614.9139999999998 674.9010000000001 2532.024 549.678 2449.085 424.381 2272.298 413.52099999999996 2128.276 370.67600000000004 1983.736 327.677 1826.608 233.86900000000003 1690.8029999999999 299.42499999999995 1553.411 365.74699999999996 1548.046 558.665 1468.791 689.0260000000001 1405.7640000000001 792.6949999999999 1284.7820000000002 866.216 1272.813 986.949 1260.9389999999999 1106.725 1350.673 1207.895 1406.8 1314.371 1459.604 1414.5430000000001 1514.751 1507.963 1591.396 1591.318 1690.99 1699.6309999999999 1775.984 1842.329 1920 1872.498"
      fill="#f7f8fa"
    ></path>
  </g>
  <defs>
    <mask id="SvgjsMask1093">
      <rect width="1920" height="1080" fill="#ffffff"></rect>
    </mask>
  </defs>
</svg>
