<svg xmlns="http://www.w3.org/2000/svg" version="1.1" xmlns:xlink="http://www.w3.org/1999/xlink" xmlns:svgjs="http://svgjs.dev/svgjs" width="1920" height="1080" preserveAspectRatio="none" viewBox="0 0 1920 1080">
    <g mask="url(&quot;#SvgjsMask1044&quot;)" fill="none">
        <rect width="1920" height="1080" x="0" y="0" fill="rgba(207, 213, 225, 1)"></rect>
        <path d="M0,488.045C114.558,486.619,233.922,575.177,335.084,521.4C435.955,467.778,459.516,334.488,493.835,225.527C524.716,127.482,547.867,24.543,522.994,-75.195C499.334,-170.071,409.472,-227.552,359.835,-311.799C295.509,-420.976,309.513,-604.418,188.685,-642.603C68.756,-680.503,-22.197,-518.772,-137.722,-469.039C-234.506,-427.374,-364.199,-455.006,-432.824,-375.045C-501.437,-295.098,-462.5,-172.875,-480.924,-69.146C-500.171,39.214,-568.65,141.07,-543.527,248.22C-516.565,363.212,-448.548,482.131,-340.489,529.811C-233.71,576.926,-116.702,489.498,0,488.045" fill="#a7b2c8"></path>
        <path d="M1920 1708.692C2038.991 1703.076 2158.862 1670.674 2251.372 1595.626 2339.271 1524.318 2396.168 1417.905 2415.84 1306.442 2433.31 1207.459 2374.695 1115.915 2353.373 1017.69 2333.911 928.037 2349.169 828.961 2295.966 754.223 2240.785 676.707 2144.968 646.716 2059.508 604.879 1956.661 554.53 1859.28 475.03700000000003 1745.1680000000001 484.578 1623.971 494.711 1487.804 549.158 1432.21 657.328 1376.141 766.421 1460.785 893.499 1472.2359999999999 1015.621 1480.534 1104.121 1476.5230000000001 1188.439 1490.245 1276.262 1509.157 1397.305 1481.537 1540.987 1567.897 1627.884 1654.536 1715.062 1797.229 1714.4859999999999 1920 1708.692" fill="#f7f8fa"></path>
    </g>
    <defs>
        <mask id="SvgjsMask1044">
            <rect width="1920" height="1080" fill="#ffffff"></rect>
        </mask>
    </defs>
</svg>