<svg width="649" height="709" viewBox="0 0 649 709" fill="none" xmlns="http://www.w3.org/2000/svg">
    <path
        d="M150.456 536.622L200.709 447.316L88.1663 366.443L30.0462 469.73L123.133 536.622H150.456Z"
        fill="#F0F0F0" />
    <path fill-rule="evenodd" clip-rule="evenodd"
        d="M96.1482 562.284H219.939V535.271H96.1482V562.284ZM218.331 560.541H97.7556V537.014H218.331V560.541Z"
        fill="#3F3D56" />
    <path
        d="M206.118 558.232C210.432 558.232 213.93 554.302 213.93 549.453C213.93 544.605 210.432 540.674 206.118 540.674C201.803 540.674 198.306 544.605 198.306 549.453C198.306 554.302 201.803 558.232 206.118 558.232Z"
        fill="#222F65" />
    <path
        d="M182.081 558.232C186.395 558.232 189.893 554.302 189.893 549.453C189.893 544.605 186.395 540.674 182.081 540.674C177.766 540.674 174.269 544.605 174.269 549.453C174.269 554.302 177.766 558.232 182.081 558.232Z"
        fill="#222F65" />
    <path
        d="M160.447 558.232C164.762 558.232 168.259 554.302 168.259 549.453C168.259 544.605 164.762 540.674 160.447 540.674C156.133 540.674 152.635 544.605 152.635 549.453C152.635 554.302 156.133 558.232 160.447 558.232Z"
        fill="#222F65" />
    <path
        d="M137.612 558.232C141.926 558.232 145.424 554.302 145.424 549.453C145.424 544.605 141.926 540.674 137.612 540.674C133.298 540.674 129.8 544.605 129.8 549.453C129.8 554.302 133.298 558.232 137.612 558.232Z"
        fill="#222F65" />
    <path
        d="M114.777 558.232C119.091 558.232 122.589 554.302 122.589 549.453C122.589 544.605 119.091 540.674 114.777 540.674C110.462 540.674 106.965 544.605 106.965 549.453C106.965 554.302 110.462 558.232 114.777 558.232Z"
        fill="#222F65" />
    <path
        d="M369.524 250.209V181.226H400.217V147.642H249.985V316.47H378.409V299.963C378.409 293.749 380.606 287.789 384.516 283.395C388.426 279.001 393.729 276.532 399.259 276.532H400.217V250.209H369.524Z"
        fill="#F0F0F0" />
    <rect width="49.6536" height="55.0373"
        transform="matrix(0.962916 -0.269801 0.216597 0.976261 57.2677 13.3965)" fill="#F0F0F0" />
    <rect x="435.07" y="583.894" width="100.956" height="22.9606" fill="#222F65" />
    <rect x="408.63" y="467.74" width="147.828" height="21.61" fill="#F0F0F0" />
    <rect y="706.801" width="629.77" height="1.35063" fill="#3F3D56" />
    <path fill-rule="evenodd" clip-rule="evenodd"
        d="M397.856 708.151H581.654C593.62 708.136 603.316 697.244 603.33 683.804V300.298C603.316 286.858 593.62 275.966 581.654 275.951H397.856C385.89 275.966 376.193 286.858 376.18 300.298V683.804C376.194 697.244 385.89 708.136 397.856 708.151ZM377.797 300.298C377.809 287.86 386.782 277.781 397.856 277.767H581.654C592.727 277.781 601.7 287.86 601.713 300.298V683.804C601.7 696.242 592.727 706.321 581.654 706.336H397.856C386.782 706.321 377.809 696.242 377.797 683.804V300.298Z"
        fill="#3F3D56" />
    <path fill-rule="evenodd" clip-rule="evenodd"
        d="M463.915 289.457C463.915 292.441 466.067 294.86 468.722 294.86C471.376 294.857 473.527 292.44 473.529 289.457C473.529 286.474 471.377 284.055 468.722 284.055C466.067 284.055 463.915 286.474 463.915 289.457ZM465.517 289.457C465.517 287.468 466.952 285.856 468.722 285.856C470.492 285.858 471.925 287.469 471.927 289.457C471.927 291.447 470.492 293.059 468.722 293.059C466.952 293.059 465.517 291.447 465.517 289.457Z"
        fill="#3F3D56" />
    <rect x="480.741" y="288.107" width="36.0556" height="1.35063" fill="#3F3D56" />
    <path d="M590.109 301.613V374.547C554.266 374.545 525.211 341.893 525.209 301.613H590.109Z"
        fill="#222F65" />
    <path fill-rule="evenodd" clip-rule="evenodd"
        d="M390.602 683.84H590.109V301.613H390.602V683.84ZM588.494 682.024H392.217V303.429H588.494V682.024Z"
        fill="#3F3D56" />
    <path opacity="0.1"
        d="M542.636 370.495C554.916 370.495 564.87 359.308 564.87 345.508C564.87 331.709 554.916 320.522 542.636 320.522C530.357 320.522 520.402 331.709 520.402 345.508C520.402 359.308 530.357 370.495 542.636 370.495Z"
        fill="black" />
    <path
        d="M539.031 373.196C551.31 373.196 561.265 362.009 561.265 348.21C561.265 334.41 551.31 323.223 539.031 323.223C526.751 323.223 516.796 334.41 516.796 348.21C516.796 362.009 526.751 373.196 539.031 373.196Z"
        fill="#222F65" />
    <rect x="399.015" y="316.47" width="31.2481" height="12.1556" fill="#3F3D56" />
    <rect x="415.841" y="438.026" width="31.2481" height="12.1556" fill="#3F3D56" />
    <path fill-rule="evenodd" clip-rule="evenodd"
        d="M417.042 485.298H566.072V462.337H417.042V485.298ZM564.452 483.532H418.662V464.104H564.452V483.532Z"
        fill="#3F3D56" />
    <rect x="408.63" y="536.622" width="147.828" height="21.61" fill="#F0F0F0" />
    <rect x="415.841" y="505.558" width="31.2481" height="12.1556" fill="#3F3D56" />
    <path fill-rule="evenodd" clip-rule="evenodd"
        d="M417.042 554.18H566.072V531.219H417.042V554.18ZM564.452 552.414H418.662V532.986H564.452V552.414Z"
        fill="#3F3D56" />
    <path fill-rule="evenodd" clip-rule="evenodd"
        d="M439.878 601.452H542.035V577.141H439.878V601.452ZM540.413 599.715H441.499V578.877H540.413V599.715Z"
        fill="#3F3D56" />
    <path
        d="M560.063 476.519C560.063 480.222 557.995 483.527 554.896 484.78C551.796 486.033 548.329 484.966 546.231 482.111L546.223 482.102C544.179 479.316 543.862 475.406 545.425 472.25C546.987 469.094 550.11 467.336 553.295 467.82C556.479 468.303 559.075 470.93 559.836 474.439C559.836 474.441 559.837 474.443 559.839 474.445C559.84 474.447 559.842 474.447 559.844 474.447C559.989 475.126 560.062 475.821 560.063 476.519Z"
        fill="#222F65" />
    <path opacity="0.1"
        d="M560.063 476.013C560.063 479.929 557.942 483.424 554.762 484.75C551.582 486.075 548.026 484.946 545.873 481.927L545.865 481.918C545.717 481.2 545.642 480.465 545.641 479.727C545.641 475.81 547.762 472.315 550.942 470.99C554.122 469.664 557.678 470.793 559.831 473.812C559.831 473.815 559.832 473.817 559.833 473.819C559.835 473.82 559.837 473.821 559.839 473.821C559.987 474.539 560.062 475.275 560.063 476.013Z"
        fill="black" />
    <path
        d="M555.856 489.35C560.171 489.35 563.669 485.42 563.669 480.571C563.669 475.723 560.171 471.792 555.856 471.792C551.542 471.792 548.044 475.723 548.044 480.571C548.044 485.42 551.542 489.35 555.856 489.35Z"
        fill="#222F65" />
    <path
        d="M560.063 544.05C560.063 547.753 557.995 551.058 554.896 552.311C551.796 553.564 548.329 552.497 546.231 549.642L546.223 549.633C544.179 546.847 543.862 542.937 545.425 539.781C546.987 536.625 550.11 534.867 553.295 535.351C556.479 535.834 559.075 538.461 559.836 541.97C559.836 541.972 559.837 541.974 559.839 541.976C559.84 541.978 559.842 541.979 559.844 541.978C559.989 542.657 560.062 543.352 560.063 544.05Z"
        fill="#222F65" />
    <path opacity="0.1"
        d="M560.063 544.895C560.063 548.811 557.942 552.306 554.762 553.632C551.582 554.957 548.026 553.828 545.873 550.809L545.865 550.8C545.717 550.082 545.642 549.347 545.641 548.609C545.641 544.692 547.762 541.197 550.942 539.872C554.122 538.546 557.678 539.675 559.831 542.694C559.831 542.697 559.832 542.699 559.833 542.701C559.835 542.703 559.837 542.703 559.839 542.703C559.987 543.421 560.062 544.157 560.063 544.895Z"
        fill="black" />
    <path
        d="M555.856 558.232C560.171 558.232 563.669 554.302 563.669 549.453C563.669 544.605 560.171 540.674 555.856 540.674C551.542 540.674 548.044 544.605 548.044 549.453C548.044 554.302 551.542 558.232 555.856 558.232Z"
        fill="#222F65" />
    <rect x="378.583" y="190.862" width="42.0648" height="47.2719" fill="#F0F0F0" />
    <path fill-rule="evenodd" clip-rule="evenodd"
        d="M532.42 213.822C532.42 219.79 536.725 224.627 542.035 224.627C547.343 224.621 551.644 219.787 551.65 213.822C551.65 207.855 547.345 203.017 542.035 203.017C536.725 203.017 532.42 207.855 532.42 213.822ZM534.023 213.822C534.023 208.85 537.61 204.818 542.035 204.818C546.458 204.824 550.042 208.852 550.047 213.822C550.047 218.795 546.46 222.827 542.035 222.827C537.61 222.827 534.023 218.795 534.023 213.822Z"
        fill="#3F3D56" />
    <path fill-rule="evenodd" clip-rule="evenodd"
        d="M308.876 377.248H329.307V354.288H308.876V377.248ZM327.735 375.482H310.447V356.054H327.735V375.482Z"
        fill="#3F3D56" />
    <path fill-rule="evenodd" clip-rule="evenodd"
        d="M628.569 554.18H649V531.219H628.569V554.18ZM647.428 552.414H630.14V532.986H647.428V552.414Z"
        fill="#3F3D56" />
    <path
        d="M234.361 396.028L237.964 398.223L250.223 405.7L270.014 417.767L281.548 393.551C283.742 388.956 284.23 383.562 282.906 378.559C281.581 373.555 278.553 369.353 274.488 366.88C265.662 361.487 254.769 363.159 247.533 371.018L247.527 371.025C245.792 372.911 244.327 375.092 243.187 377.49L234.361 396.028Z"
        fill="#2F2E41" />
    <path d="M288.445 639.378L286.124 670.28L277.421 671.685L271.619 636.568L288.445 639.378Z"
        fill="#FFB8B8" />
    <path
        d="M274.445 672.52C274.445 672.52 285.954 665.589 288.376 671.133C288.376 671.133 286.559 687.768 293.828 689.848C301.096 691.927 304.125 706.482 293.828 707.869C283.531 709.255 276.868 705.096 273.234 705.096C269.6 705.096 273.234 690.541 273.234 690.541L274.445 672.52Z"
        fill="#2F2E41" />
    <path d="M215.131 639.378L217.453 670.28L226.155 671.685L231.957 636.568L215.131 639.378Z"
        fill="#FFB8B8" />
    <path
        d="M230.333 672.52C230.333 672.52 218.824 665.589 216.401 671.133C216.401 671.133 218.218 687.768 210.95 689.848C203.681 691.927 200.653 706.482 210.95 707.869C221.247 709.255 227.91 705.096 231.544 705.096C235.178 705.096 231.544 690.541 231.544 690.541L230.333 672.52Z"
        fill="#2F2E41" />
    <path
        d="M263.806 401.559C272.767 401.559 280.031 393.396 280.031 383.326C280.031 373.256 272.767 365.092 263.806 365.092C254.845 365.092 247.581 373.256 247.581 383.326C247.581 393.396 254.845 401.559 263.806 401.559Z"
        fill="#FFB8B8" />
    <path
        d="M215.131 417.497L227.744 440.044L242.76 438.678L267.385 440.728C267.385 440.728 269.709 435.439 271.607 430.294C272.646 427.725 273.445 425.039 273.991 422.28C274.592 417.497 266.183 412.714 266.183 412.714C266.183 412.714 265.853 412.646 265.301 412.495C264.568 412.297 263.439 411.969 262.201 411.491C259.408 410.411 256.051 408.58 255.372 405.881C254.171 401.099 263.18 394.266 263.18 394.266L252.369 382.651C252.369 382.651 242.766 397.826 231.102 401.283C230.425 401.486 229.74 401.646 229.047 401.761C229.011 401.768 228.981 401.775 228.945 401.782C216.333 403.832 215.131 417.497 215.131 417.497Z"
        fill="#FFB8B8" />
    <path
        d="M221.459 412.365L214.502 418.494C214.502 418.494 208.811 447.779 210.708 455.952C212.605 464.124 210.076 471.616 210.076 472.978C210.076 474.34 204.384 525.419 204.384 525.419C204.384 525.419 193.001 552.661 205.017 549.937C217.032 547.213 212.605 519.971 212.605 519.971L227.15 472.297V432.115L221.459 412.365Z"
        fill="#FFB8B8" />
    <path
        d="M269.27 417.767L274.187 421.818L276.645 478.539L295.085 527.157C295.085 527.157 308.607 550.79 300.002 551.465C291.397 552.141 285.865 527.157 285.865 527.157L269.27 480.565L266.811 435.323L269.27 417.767Z"
        fill="#FFB8B8" />
    <path
        d="M238.849 420.468C238.849 420.468 250.972 430.028 270.369 426.613C270.369 426.613 275.824 438.904 272.793 445.732C269.763 452.56 276.43 468.947 277.643 470.996C278.855 473.044 292.796 515.378 297.645 561.126C302.495 606.873 315.83 638.282 304.313 642.379C292.796 646.476 269.157 651.256 266.732 647.159C264.307 643.062 260.67 541.324 260.67 541.324L254.003 580.244C254.003 580.244 263.095 646.476 256.427 647.842C249.76 649.207 207.936 645.11 209.148 636.917C210.36 628.723 222.483 585.707 222.483 585.707C222.483 585.707 221.877 499.673 234 483.286C234 483.286 238.849 474.41 232.182 462.802C225.514 451.194 226.12 432.759 226.12 432.759C226.12 432.759 230.969 432.759 238.849 420.468Z"
        fill="#2F2E41" />
    <path d="M228.352 402.035L238.063 427.221L240.371 425.861L230.325 401.559L228.352 402.035Z"
        fill="#2F2E41" />
    <path
        d="M262.004 412.365L269.758 431.273L271.618 431.09L270.986 427.871L265.172 413.365C264.423 413.167 263.268 412.841 262.004 412.365Z"
        fill="#2F2E41" />
    <path
        d="M237.217 397.539C238.406 401.95 241.772 405.11 245.759 405.557C249.746 406.005 253.578 403.653 255.482 399.59C247.832 388.055 254.394 380.809 266.823 375.328C268.737 371.23 268.314 366.204 265.752 362.607C258.814 361.584 251.846 364.229 246.791 369.804L246.785 369.811L237.955 388.697C236.685 391.409 236.419 394.598 237.217 397.539Z"
        fill="#2F2E41" />
    <path
        d="M255.394 389.404C256.389 389.404 257.196 387.589 257.196 385.352C257.196 383.114 256.389 381.3 255.394 381.3C254.398 381.3 253.591 383.114 253.591 385.352C253.591 387.589 254.398 389.404 255.394 389.404Z"
        fill="#FFB8B8" />
    <path
        d="M262.004 378.762L280.286 388.053L283.637 379.758C283.059 376.727 281.851 373.891 280.109 371.484L267.526 365.092L262.004 378.762Z"
        fill="#2F2E41" />
    <path
        d="M305.871 560.933C310.186 560.933 313.683 557.003 313.683 552.154C313.683 547.306 310.186 543.375 305.871 543.375C301.557 543.375 298.059 547.306 298.059 552.154C298.059 557.003 301.557 560.933 305.871 560.933Z"
        fill="#222F65" />
    <path
        d="M46.2712 614.958C49.2582 614.958 51.6796 612.237 51.6796 608.881C51.6796 605.524 49.2582 602.803 46.2712 602.803C43.2843 602.803 40.8629 605.524 40.8629 608.881C40.8629 612.237 43.2843 614.958 46.2712 614.958Z"
        fill="#FF6584" />
    <rect x="70.9093" y="640.62" width="1.20185" height="67.5313" fill="#3F3D56" />
    <path
        d="M72.1112 648.724C76.7575 648.724 80.5241 644.491 80.5241 639.27C80.5241 634.048 76.7575 629.815 72.1112 629.815C67.4648 629.815 63.6982 634.048 63.6982 639.27C63.6982 644.491 67.4648 648.724 72.1112 648.724Z"
        fill="#3F3D56" />
    <path d="M70.9093 681.139C70.9093 681.139 69.7354 652.408 45.6704 655.747L70.9093 681.139Z"
        fill="#3F3D56" />
</svg>